<svg width="38" height="38" viewBox="0 0 38 38" fill="none" xmlns="http://www.w3.org/2000/svg">
<rect width="38" height="38" rx="19" fill="#50F3FE"/>
<path d="M14.5071 11.4545V26H11.4318V14.3736H11.3466L8.01562 16.4616V13.7344L11.6165 11.4545H14.5071ZM23.6673 26.3196C22.4457 26.3149 21.3945 26.0142 20.5138 25.4176C19.6379 24.821 18.9632 23.9569 18.4897 22.8253C18.021 21.6937 17.7889 20.3324 17.7937 18.7415C17.7937 17.1553 18.0281 15.8035 18.4968 14.6861C18.9703 13.5687 19.645 12.7187 20.521 12.1364C21.4016 11.5492 22.4504 11.2557 23.6673 11.2557C24.8841 11.2557 25.9305 11.5492 26.8065 12.1364C27.6871 12.7235 28.3642 13.5758 28.8377 14.6932C29.3112 15.8059 29.5456 17.1553 29.5408 18.7415C29.5408 20.3371 29.3041 21.7008 28.8306 22.8324C28.3619 23.964 27.6895 24.8281 26.8136 25.4247C25.9376 26.0213 24.8888 26.3196 23.6673 26.3196ZM23.6673 23.7699C24.5006 23.7699 25.1658 23.3509 25.663 22.5128C26.1602 21.6747 26.4064 20.4176 26.4016 18.7415C26.4016 17.6383 26.288 16.7197 26.0607 15.9858C25.8382 15.2519 25.521 14.7003 25.109 14.331C24.7018 13.9616 24.2212 13.777 23.6673 13.777C22.8387 13.777 22.1758 14.1913 21.6786 15.0199C21.1815 15.8485 20.9305 17.089 20.9258 18.7415C20.9258 19.8589 21.0371 20.7917 21.2596 21.5398C21.4869 22.2831 21.8065 22.8419 22.2184 23.2159C22.6303 23.5852 23.1133 23.7699 23.6673 23.7699Z" fill="white"/>
</svg>
