<svg width="38" height="38" viewBox="0 0 38 38" fill="none" xmlns="http://www.w3.org/2000/svg">
<rect width="38" height="38" rx="19" fill="#C4B5FD"/>
<path d="M13.679 26V23.7841L18.8565 18.9901C19.2969 18.5639 19.6662 18.1804 19.9645 17.8395C20.2675 17.4986 20.4972 17.1648 20.6534 16.8381C20.8097 16.5066 20.8878 16.1491 20.8878 15.7656C20.8878 15.3395 20.7907 14.9725 20.5966 14.6648C20.4025 14.3523 20.1373 14.1132 19.8011 13.9474C19.465 13.777 19.0838 13.6918 18.6577 13.6918C18.2126 13.6918 17.8243 13.7817 17.4929 13.9616C17.1615 14.1416 16.9058 14.3996 16.7259 14.7358C16.5459 15.072 16.456 15.4721 16.456 15.9361H13.5369C13.5369 14.9844 13.7524 14.1581 14.1832 13.4574C14.6141 12.7566 15.2178 12.2145 15.9943 11.831C16.7708 11.4474 17.6657 11.2557 18.679 11.2557C19.7206 11.2557 20.6274 11.4403 21.3991 11.8097C22.1757 12.1742 22.7794 12.6809 23.2102 13.3295C23.6411 13.9782 23.8565 14.7216 23.8565 15.5597C23.8565 16.1089 23.7476 16.651 23.5298 17.1861C23.3168 17.7211 22.9356 18.3153 22.3864 18.9688C21.8371 19.6174 21.063 20.3963 20.0639 21.3054L17.9403 23.3864V23.4858H24.0483V26H13.679Z" fill="white"/>
</svg>
