<svg width="38" height="38" viewBox="0 0 38 38" fill="none" xmlns="http://www.w3.org/2000/svg">
<rect width="38" height="38" rx="19" fill="#CEDD22"/>
<path d="M18.5554 26.1989C17.4948 26.1989 16.5502 26.0166 15.7216 25.652C14.8977 25.2827 14.2467 24.776 13.7685 24.1321C13.295 23.4834 13.0511 22.7353 13.0369 21.8878H16.1335C16.1525 22.2429 16.2685 22.5554 16.4815 22.8253C16.6993 23.0904 16.9882 23.2964 17.348 23.4432C17.7079 23.59 18.1127 23.6634 18.5625 23.6634C19.0312 23.6634 19.4455 23.5805 19.8054 23.4148C20.1652 23.2491 20.447 23.0194 20.6506 22.7259C20.8542 22.4323 20.956 22.0937 20.956 21.7102C20.956 21.322 20.8471 20.9787 20.6293 20.6804C20.4162 20.3774 20.1084 20.1406 19.706 19.9702C19.3082 19.7997 18.8348 19.7145 18.2855 19.7145H16.929V17.456H18.2855C18.7495 17.456 19.1591 17.3755 19.5142 17.2145C19.8741 17.0535 20.1534 16.831 20.3523 16.5469C20.5511 16.258 20.6506 15.9219 20.6506 15.5384C20.6506 15.1738 20.563 14.8542 20.3878 14.5795C20.2173 14.3002 19.9759 14.0824 19.6634 13.9261C19.3556 13.7699 18.9957 13.6918 18.5838 13.6918C18.1671 13.6918 17.786 13.7675 17.4403 13.919C17.0947 14.0658 16.8177 14.2765 16.6094 14.5511C16.401 14.8258 16.2898 15.1477 16.2756 15.517H13.3281C13.3423 14.679 13.5814 13.9403 14.0455 13.3011C14.5095 12.6619 15.1345 12.1624 15.9205 11.8026C16.7112 11.438 17.6037 11.2557 18.598 11.2557C19.6018 11.2557 20.4801 11.438 21.233 11.8026C21.9858 12.1671 22.5705 12.6596 22.9872 13.2798C23.4086 13.8954 23.617 14.5866 23.6122 15.3537C23.617 16.1681 23.3636 16.8475 22.8523 17.392C22.3456 17.9366 21.6851 18.2822 20.8707 18.429V18.5426C21.9408 18.6799 22.7552 19.0516 23.3139 19.6577C23.8774 20.259 24.1567 21.0118 24.152 21.9162C24.1567 22.7448 23.9176 23.4811 23.4347 24.125C22.9564 24.7689 22.2959 25.2756 21.4531 25.6449C20.6103 26.0142 19.6444 26.1989 18.5554 26.1989Z" fill="white"/>
</svg>
