<svg width="38" height="38" viewBox="0 0 38 38" fill="none" xmlns="http://www.w3.org/2000/svg">
<rect width="38" height="38" rx="19" fill="#FDA4A4"/>
<path d="M18.9915 26.1989C17.9877 26.1989 17.0928 26.0142 16.3068 25.6449C15.5256 25.2756 14.9053 24.7666 14.446 24.1179C13.9867 23.4692 13.7476 22.7259 13.7287 21.8878H16.7116C16.7448 22.4512 16.9815 22.9081 17.4219 23.2585C17.8622 23.6089 18.3854 23.7841 18.9915 23.7841C19.4744 23.7841 19.9006 23.6776 20.2699 23.4645C20.6439 23.2467 20.9351 22.946 21.1435 22.5625C21.3565 22.1742 21.4631 21.7292 21.4631 21.2273C21.4631 20.7159 21.3542 20.2661 21.1364 19.8778C20.9233 19.4896 20.6274 19.1866 20.2486 18.9688C19.8698 18.7509 19.4366 18.6397 18.9489 18.6349C18.5227 18.6349 18.1084 18.7225 17.706 18.8977C17.3082 19.0729 16.9981 19.312 16.7756 19.6151L14.0412 19.125L14.7301 11.4545H23.6222V13.9688H17.2656L16.8892 17.6122H16.9744C17.2301 17.2524 17.616 16.9541 18.1321 16.7173C18.6482 16.4806 19.2259 16.3622 19.8651 16.3622C20.741 16.3622 21.5223 16.5682 22.2088 16.9801C22.8954 17.392 23.4375 17.9579 23.8352 18.6776C24.233 19.3925 24.4295 20.2164 24.4247 21.1491C24.4295 22.1293 24.2022 23.0005 23.7429 23.7628C23.2884 24.5204 22.6515 25.117 21.8324 25.5526C21.018 25.9834 20.071 26.1989 18.9915 26.1989Z" fill="white"/>
</svg>
