<svg width="38" height="38" viewBox="0 0 38 38" fill="none" xmlns="http://www.w3.org/2000/svg">
<rect width="38" height="38" rx="19" fill="#9280FD"/>
<path d="M18.7614 26.1989C18.0133 26.1941 17.2912 26.0687 16.5952 25.8224C15.9039 25.5762 15.2836 25.1761 14.7344 24.6222C14.1851 24.0682 13.7495 23.3343 13.4276 22.4205C13.1103 21.5066 12.9517 20.3845 12.9517 19.054C12.9564 17.8324 13.0961 16.741 13.3707 15.7798C13.6501 14.8139 14.0478 13.9948 14.5639 13.3224C15.0848 12.6501 15.7074 12.1387 16.4318 11.7884C17.1563 11.4332 17.9683 11.2557 18.8679 11.2557C19.8385 11.2557 20.6955 11.4451 21.4389 11.8239C22.1823 12.1979 22.7789 12.7069 23.2287 13.3509C23.6832 13.9948 23.9579 14.7169 24.0526 15.517H21.0199C20.9015 15.0104 20.6529 14.6127 20.2741 14.3239C19.8954 14.035 19.4266 13.8906 18.8679 13.8906C17.9209 13.8906 17.2012 14.3026 16.7088 15.1264C16.2211 15.9503 15.9725 17.0701 15.9631 18.4858H16.0625C16.2803 18.0549 16.5739 17.688 16.9432 17.3849C17.3172 17.0772 17.741 16.8428 18.2145 16.6818C18.6927 16.5161 19.197 16.4332 19.7273 16.4332C20.589 16.4332 21.3561 16.6368 22.0284 17.044C22.7008 17.4465 23.2311 18.0005 23.6193 18.706C24.0076 19.4115 24.2017 20.2187 24.2017 21.1278C24.2017 22.1127 23.9721 22.9886 23.5128 23.7557C23.0582 24.5227 22.4214 25.1241 21.6023 25.5597C20.7879 25.9905 19.8409 26.2036 18.7614 26.1989ZM18.7472 23.7841C19.2206 23.7841 19.6444 23.6705 20.0185 23.4432C20.3925 23.2159 20.6861 22.9081 20.8991 22.5199C21.1122 22.1316 21.2188 21.696 21.2188 21.2131C21.2188 20.7301 21.1122 20.2969 20.8991 19.9134C20.6908 19.5298 20.402 19.2244 20.0327 18.9972C19.6634 18.7699 19.242 18.6562 18.7685 18.6562C18.4134 18.6562 18.0843 18.7225 17.7812 18.8551C17.483 18.9877 17.2202 19.1723 16.9929 19.4091C16.7704 19.6458 16.5952 19.9205 16.4673 20.233C16.3395 20.5407 16.2756 20.8698 16.2756 21.2202C16.2756 21.6889 16.3821 22.1174 16.5952 22.5057C16.813 22.8939 17.1065 23.2041 17.4759 23.4361C17.8499 23.6681 18.2737 23.7841 18.7472 23.7841Z" fill="white"/>
</svg>
