<svg width="38" height="38" viewBox="0 0 38 38" fill="none" xmlns="http://www.w3.org/2000/svg">
<rect width="38" height="38" rx="19" fill="#C6B418"/>
<path d="M18.6051 26.1989C17.5114 26.1989 16.5384 26.0213 15.6861 25.6662C14.8385 25.3063 14.1733 24.8163 13.6903 24.196C13.2074 23.5758 12.9659 22.8726 12.9659 22.0866C12.9659 21.4806 13.1032 20.9242 13.3778 20.4176C13.6572 19.9062 14.036 19.4825 14.5142 19.1463C14.9924 18.8054 15.5275 18.5876 16.1193 18.4929V18.3935C15.3428 18.2372 14.7131 17.8608 14.2301 17.2642C13.7472 16.6629 13.5057 15.9645 13.5057 15.169C13.5057 14.4162 13.7259 13.7462 14.1662 13.1591C14.6065 12.5672 15.2102 12.1032 15.9773 11.767C16.7491 11.4261 17.625 11.2557 18.6051 11.2557C19.5852 11.2557 20.4588 11.4261 21.2259 11.767C21.9976 12.108 22.6037 12.5743 23.044 13.1662C23.4844 13.7533 23.7069 14.4209 23.7116 15.169C23.7069 15.9692 23.4607 16.6676 22.973 17.2642C22.4853 17.8608 21.8603 18.2372 21.098 18.3935V18.4929C21.6804 18.5876 22.2083 18.8054 22.6818 19.1463C23.16 19.4825 23.5388 19.9062 23.8182 20.4176C24.1023 20.9242 24.2467 21.4806 24.2514 22.0866C24.2467 22.8726 24.0028 23.5758 23.5199 24.196C23.0369 24.8163 22.3693 25.3063 21.517 25.6662C20.6695 26.0213 19.6989 26.1989 18.6051 26.1989ZM18.6051 23.9403C19.0928 23.9403 19.5189 23.8527 19.8835 23.6776C20.2481 23.4976 20.5322 23.2514 20.7358 22.9389C20.9441 22.6217 21.0483 22.2571 21.0483 21.8452C21.0483 21.4238 20.9418 21.0521 20.7287 20.7301C20.5156 20.4034 20.2268 20.1477 19.8622 19.9631C19.4976 19.7737 19.0786 19.679 18.6051 19.679C18.1364 19.679 17.7173 19.7737 17.348 19.9631C16.9787 20.1477 16.6875 20.4034 16.4744 20.7301C16.2661 21.0521 16.1619 21.4238 16.1619 21.8452C16.1619 22.2571 16.2637 22.6217 16.4673 22.9389C16.6709 23.2514 16.9574 23.4976 17.3267 23.6776C17.696 23.8527 18.1222 23.9403 18.6051 23.9403ZM18.6051 17.4418C19.0123 17.4418 19.3745 17.3589 19.6918 17.1932C20.009 17.0275 20.2576 16.7978 20.4375 16.5043C20.6174 16.2107 20.7074 15.8722 20.7074 15.4886C20.7074 15.1098 20.6174 14.7784 20.4375 14.4943C20.2576 14.2055 20.0114 13.9806 19.6989 13.8196C19.3864 13.6539 19.0218 13.571 18.6051 13.571C18.1932 13.571 17.8286 13.6539 17.5114 13.8196C17.1941 13.9806 16.9455 14.2055 16.7656 14.4943C16.5904 14.7784 16.5028 15.1098 16.5028 15.4886C16.5028 15.8722 16.5928 16.2107 16.7727 16.5043C16.9527 16.7978 17.2012 17.0275 17.5185 17.1932C17.8357 17.3589 18.1979 17.4418 18.6051 17.4418Z" fill="white"/>
</svg>
