<svg width="38" height="38" viewBox="0 0 38 38" fill="none" xmlns="http://www.w3.org/2000/svg">
<rect width="38" height="38" rx="19" fill="#B081ED"/>
<path d="M18.4418 11.2557C19.1899 11.2557 19.9096 11.3812 20.6009 11.6321C21.2969 11.883 21.9171 12.2831 22.4616 12.8324C23.0109 13.3816 23.4441 14.1108 23.7614 15.0199C24.0833 15.9242 24.2467 17.0346 24.2514 18.3509C24.2514 19.5866 24.1117 20.6899 23.8324 21.6605C23.5578 22.6264 23.1624 23.4479 22.6463 24.125C22.1302 24.8021 21.5076 25.3182 20.7784 25.6733C20.0492 26.0237 19.2348 26.1989 18.3352 26.1989C17.3646 26.1989 16.5076 26.0118 15.7642 25.6378C15.0208 25.259 14.4219 24.7453 13.9673 24.0966C13.5175 23.4432 13.2453 22.7093 13.1506 21.8949H16.1832C16.3016 22.4252 16.5502 22.8371 16.929 23.1307C17.3078 23.4195 17.7765 23.5639 18.3352 23.5639C19.2822 23.5639 20.0019 23.152 20.4943 22.3281C20.9867 21.4995 21.2353 20.3655 21.2401 18.9261H21.1406C20.9228 19.3523 20.6293 19.7192 20.2599 20.027C19.8906 20.33 19.4669 20.5644 18.9886 20.7301C18.5152 20.8958 18.0109 20.9787 17.4759 20.9787C16.6188 20.9787 15.8542 20.7775 15.1818 20.375C14.5095 19.9725 13.9792 19.4186 13.5909 18.7131C13.2027 18.0076 13.0085 17.2027 13.0085 16.2983C13.0038 15.3229 13.2287 14.4541 13.6832 13.6918C14.1378 12.9295 14.7723 12.3329 15.5866 11.902C16.4058 11.4664 17.3575 11.2509 18.4418 11.2557ZM18.4631 13.6705C17.9848 13.6705 17.5587 13.7841 17.1847 14.0114C16.8153 14.2386 16.5218 14.544 16.304 14.9276C16.0909 15.3111 15.9867 15.7396 15.9915 16.2131C15.9915 16.6913 16.0956 17.1222 16.304 17.5057C16.517 17.8845 16.8059 18.1875 17.1705 18.4148C17.5398 18.6373 17.9612 18.7486 18.4347 18.7486C18.7898 18.7486 19.1188 18.6823 19.4219 18.5497C19.7249 18.4171 19.9877 18.2348 20.2102 18.0028C20.4375 17.7661 20.6151 17.4938 20.7429 17.1861C20.8707 16.8783 20.9347 16.5516 20.9347 16.206C20.9299 15.7467 20.821 15.3253 20.608 14.9418C20.3949 14.5582 20.1013 14.2505 19.7273 14.0185C19.3532 13.7865 18.9318 13.6705 18.4631 13.6705Z" fill="white"/>
</svg>
