<svg width="64" height="64" viewBox="0 0 64 64" fill="none" xmlns="http://www.w3.org/2000/svg">
<circle cx="32.4174" cy="31.5824" r="22.5" transform="rotate(128 32.4174 31.5824)" fill="#10BDE3"/>
<path d="M32.9048 18.7847C32.6387 18.7847 32.3835 18.8904 32.1953 19.0786C32.0071 19.2668 31.9013 19.522 31.9013 19.7882V39.4427L27.5943 35.1357C27.4051 34.9529 27.1516 34.8518 26.8885 34.8541C26.6253 34.8563 26.3736 34.9619 26.1876 35.1479C26.0015 35.334 25.896 35.5857 25.8937 35.8488C25.8914 36.1119 25.9926 36.3654 26.1754 36.5547L32.1964 42.5757C32.2887 42.6685 32.3985 42.7422 32.5193 42.7925C32.6402 42.8428 32.7699 42.8687 32.9008 42.8687H32.9048C33.0353 42.8687 33.1658 42.8426 33.2882 42.7904C33.4098 42.7404 33.5204 42.6667 33.6133 42.5737L39.6343 36.5527C39.8171 36.3634 39.9183 36.1099 39.916 35.8468C39.9137 35.5837 39.8082 35.332 39.6221 35.1459C39.436 34.9599 39.1843 34.8543 38.9212 34.8521C38.6581 34.8498 38.4046 34.9509 38.2154 35.1337L33.9083 39.4427V19.7882C33.9083 19.522 33.8026 19.2668 33.6144 19.0786C33.4262 18.8904 33.171 18.7847 32.9048 18.7847Z" fill="#333333"/>
</svg>
