<svg xmlns="http://www.w3.org/2000/svg" width="69" height="69" viewBox="0 0 69 69" fill="none">
  <circle cx="34.5" cy="34.5" r="33.25" fill="#10BDE3" stroke="#B20000" stroke-width="1.5" stroke-dasharray="3 3"/>
  <path d="M34.7608 19.8806C34.4238 19.8806 34.1005 20.0145 33.8621 20.2529C33.6238 20.4912 33.4899 20.8145 33.4899 21.1516V46.0445L28.035 40.5895C27.7953 40.358 27.4742 40.2299 27.141 40.2328C26.8077 40.2357 26.489 40.3694 26.2533 40.605C26.0177 40.8407 25.884 41.1594 25.8811 41.4927C25.8782 41.8259 26.0063 42.147 26.2378 42.3867L33.8635 50.0124C33.9805 50.13 34.1195 50.2233 34.2726 50.287C34.4257 50.3507 34.5899 50.3835 34.7558 50.3835H34.7608C34.9261 50.3835 35.0913 50.3504 35.2463 50.2844C35.4004 50.221 35.5404 50.1277 35.6581 50.0098L43.2839 42.3841C43.5154 42.1444 43.6435 41.8234 43.6406 41.4901C43.6377 41.1569 43.504 40.8381 43.2684 40.6025C43.0327 40.3668 42.714 40.2332 42.3807 40.2303C42.0475 40.2274 41.7264 40.3555 41.4867 40.587L36.0318 46.0445V21.1516C36.0318 20.8145 35.8979 20.4912 35.6595 20.2529C35.4212 20.0145 35.0979 19.8806 34.7608 19.8806Z" fill="white"/>
</svg>