<svg width="44" height="43" viewBox="0 0 44 43" fill="none" xmlns="http://www.w3.org/2000/svg">
<g clip-path="url(#clip0_1031_2828)">
<path d="M43.5677 21.5632C43.5677 32.2628 35.7284 41.1312 25.4809 42.739V27.7596H30.4757L31.4261 21.5632H25.4809V17.5422C25.4809 15.8466 26.3116 14.1945 28.9744 14.1945H31.6773V8.91915C31.6773 8.91915 29.2239 8.50047 26.8785 8.50047C21.9825 8.50047 18.7821 11.468 18.7821 16.8405V21.5632H13.3393V27.7596H18.7821V42.739C8.5346 41.1312 0.695312 32.2628 0.695312 21.5632C0.695312 9.72468 10.293 0.126953 22.1315 0.126953C33.97 0.126953 43.5677 9.72468 43.5677 21.5632Z" fill="#1877F2"/>
<path d="M30.4763 27.7591L31.4266 21.5627H25.4814V17.5416C25.4814 15.8464 26.3119 14.194 28.9748 14.194H31.6779V8.91868C31.6779 8.91868 29.2247 8.5 26.8794 8.5C21.9829 8.5 18.7826 11.4676 18.7826 16.84V21.5627H13.3398V27.7591H18.7826V42.7384C19.874 42.9096 20.9926 42.9989 22.132 42.9989C23.2715 42.9989 24.39 42.9096 25.4814 42.7384V27.7591H30.4763Z" fill="white"/>
</g>
<defs>
<clipPath id="clip0_1031_2828">
<rect width="42.8724" height="42.8724" fill="white" transform="translate(0.695312 0.126953)"/>
</clipPath>
</defs>
</svg>
