<svg width="44" height="43" viewBox="0 0 44 43" fill="none" xmlns="http://www.w3.org/2000/svg">
<path d="M22.405 42.9994C34.2439 42.9994 43.8412 33.4021 43.8412 21.5632C43.8412 9.72427 34.2439 0.126953 22.405 0.126953C10.5661 0.126953 0.96875 9.72427 0.96875 21.5632C0.96875 33.4021 10.5661 42.9994 22.405 42.9994Z" fill="url(#paint0_linear_1031_2832)"/>
<path d="M26.9574 9.65625H17.8589C13.8003 9.65625 10.5039 12.9527 10.5039 17.0113V26.1097C10.5039 30.1683 13.8003 33.4647 17.8589 33.4647H26.9574C31.016 33.4647 34.3124 30.1683 34.3124 26.1097V17.0113C34.3124 12.9527 31.016 9.65625 26.9574 9.65625ZM31.6543 26.1193C31.6543 28.7107 29.5488 30.8257 26.9479 30.8257H17.8494C15.258 30.8257 13.1429 28.7202 13.1429 26.1193V17.0208C13.1429 14.4294 15.2485 12.3143 17.8494 12.3143H26.9479C29.5393 12.3143 31.6543 14.4199 31.6543 17.0208V26.1193Z" fill="white"/>
<path d="M22.4043 15.4766C19.0507 15.4766 16.3164 18.2109 16.3164 21.5644C16.3164 24.918 19.0507 27.6523 22.4043 27.6523C25.7579 27.6523 28.4922 24.918 28.4922 21.5644C28.4922 18.2109 25.7579 15.4766 22.4043 15.4766ZM22.4043 25.261C20.3655 25.261 18.7077 23.6033 18.7077 21.5644C18.7077 19.5256 20.3655 17.8679 22.4043 17.8679C24.4431 17.8679 26.1008 19.5256 26.1008 21.5644C26.1008 23.6033 24.4431 25.261 22.4043 25.261Z" fill="white"/>
<path d="M28.9542 16.1458C29.5151 16.0549 29.8961 15.5265 29.8051 14.9656C29.7142 14.4047 29.1858 14.0237 28.6249 14.1147C28.0641 14.2056 27.6831 14.734 27.774 15.2949C27.8649 15.8557 28.3933 16.2367 28.9542 16.1458Z" fill="white"/>
<defs>
<linearGradient id="paint0_linear_1031_2832" x1="6.08286" y1="37.8853" x2="36.5461" y2="7.42203" gradientUnits="userSpaceOnUse">
<stop stop-color="#FEE411"/>
<stop offset="0.0518459" stop-color="#FEDB16"/>
<stop offset="0.1381" stop-color="#FEC125"/>
<stop offset="0.2481" stop-color="#FE983D"/>
<stop offset="0.3762" stop-color="#FE5F5E"/>
<stop offset="0.5" stop-color="#FE2181"/>
<stop offset="1" stop-color="#9000DC"/>
</linearGradient>
</defs>
</svg>
