<svg width="44" height="43" viewBox="0 0 44 43" fill="none" xmlns="http://www.w3.org/2000/svg">
<g clip-path="url(#clip0_1031_2838)">
<path d="M21.6784 42.9994C33.5173 42.9994 43.1146 33.4021 43.1146 21.5632C43.1146 9.72427 33.5173 0.126953 21.6784 0.126953C9.83951 0.126953 0.242188 9.72427 0.242188 21.5632C0.242188 33.4021 9.83951 42.9994 21.6784 42.9994Z" fill="#007AB9"/>
<path d="M34.4868 23.2888V32.1265H29.363V23.8811C29.363 21.8107 28.6232 20.3969 26.768 20.3969C25.3522 20.3969 24.5112 21.3488 24.1398 22.2704C24.0049 22.5998 23.9701 23.0572 23.9701 23.5192V32.1261H18.8459C18.8459 32.1261 18.9146 18.1611 18.8459 16.7155H23.9705V18.8994C23.9602 18.9166 23.9456 18.9334 23.9365 18.9498H23.9705V18.8994C24.6514 17.8516 25.8658 16.3537 28.5884 16.3537C31.9595 16.3537 34.4868 18.5562 34.4868 23.2888ZM13.4855 9.28711C11.7327 9.28711 10.5859 10.4377 10.5859 11.9493C10.5859 13.4289 11.6994 14.6127 13.4182 14.6127H13.4515C15.2386 14.6127 16.3498 13.4289 16.3498 11.9493C16.3158 10.4377 15.2386 9.28711 13.4855 9.28711ZM10.8905 32.1265H16.0128V16.7155H10.8905V32.1265Z" fill="#F1F2F2"/>
</g>
<defs>
<clipPath id="clip0_1031_2838">
<rect width="42.8724" height="42.8724" fill="white" transform="translate(0.238281 0.126953)"/>
</clipPath>
</defs>
</svg>
