<svg width="44" height="43" viewBox="0 0 44 43" fill="none" xmlns="http://www.w3.org/2000/svg">
<g clip-path="url(#clip0_1031_2822)">
<path d="M21.862 42.9974C33.7009 42.9974 43.2982 33.4001 43.2982 21.5612C43.2982 9.72232 33.7009 0.125 21.862 0.125C10.0231 0.125 0.425781 9.72232 0.425781 21.5612C0.425781 33.4001 10.0231 42.9974 21.862 42.9974Z" fill="#03A9F4"/>
<path d="M32.4752 23.9456C34.1083 16.6122 27.6802 9.94437 20.1353 11.2221C16.037 8.68076 10.582 11.5521 10.582 16.4288C10.5797 17.5203 10.8721 18.5922 11.4282 19.5314C9.91075 26.8846 16.3924 33.4537 23.9317 32.0857C29.271 34.9119 35.1632 29.2905 32.4752 23.9456ZM25.3025 28.3682C23.3281 29.1834 20.0619 29.189 18.0904 28.1567C15.2698 26.6561 14.779 23.2799 17.2047 23.2799C19.0324 23.2799 18.4542 25.4123 20.3073 26.281C21.1535 26.6731 22.9756 26.7126 24.0333 25.999C25.091 25.2854 24.9669 24.1994 24.4028 23.672C22.8966 22.2815 18.5896 22.8258 16.618 20.4002C16.1586 19.7819 15.9136 19.0305 15.9202 18.2603C15.9268 17.49 16.1847 16.743 16.6547 16.1327C18.4881 13.7719 23.8669 13.628 26.1825 15.4106C28.3177 17.0634 27.7423 19.2578 26.0161 19.2578C23.943 19.2578 25.0346 16.5445 21.6866 16.5445C19.2609 16.5445 18.3019 18.2706 20.014 19.1112C22.3381 20.262 28.2387 19.8699 28.2387 24.3828C28.2387 26.2528 27.0879 27.649 25.3025 28.3767V28.3682Z" fill="white"/>
</g>
<defs>
<clipPath id="clip0_1031_2822">
<rect width="42.8724" height="42.8724" fill="white" transform="translate(0.425781 0.126953)"/>
</clipPath>
</defs>
</svg>
