<svg width="44" height="43" viewBox="0 0 44 43" fill="none" xmlns="http://www.w3.org/2000/svg">
<g clip-path="url(#clip0_1039_15)">
<path d="M22.405 42.9974C34.2439 42.9974 43.8412 33.4001 43.8412 21.5612C43.8412 9.72232 34.2439 0.125 22.405 0.125C10.5661 0.125 0.96875 9.72232 0.96875 21.5612C0.96875 33.4001 10.5661 42.9974 22.405 42.9974Z" fill="#03A9F4"/>
<path fill-rule="evenodd" clip-rule="evenodd" d="M35.429 13.4743C34.4834 13.8944 33.4657 14.1773 32.3983 14.3051C33.488 13.6518 34.3248 12.6178 34.7183 11.3858C33.6998 11.9911 32.5689 12.4292 31.3678 12.6667C30.405 11.6413 29.0324 11 27.5158 11C24.6016 11 22.2388 13.3628 22.2388 16.2769C22.2388 16.6902 22.286 17.0931 22.376 17.4798C17.9898 17.2603 14.1018 15.159 11.4989 11.9662C11.0445 12.7455 10.7847 13.6518 10.7847 14.6189C10.7847 16.4493 11.7149 18.0645 13.1321 19.011C12.2662 18.9836 11.4534 18.7461 10.741 18.3509V18.4169C10.741 20.9743 12.5611 23.1065 14.9737 23.5927C14.5313 23.7127 14.0649 23.7778 13.5839 23.7778C13.2436 23.7778 12.9126 23.7444 12.5903 23.6827C13.2616 25.7789 15.2112 27.305 17.52 27.3478C15.7144 28.7624 13.439 29.6069 10.9665 29.6069C10.5395 29.6069 10.1194 29.582 9.70703 29.5323C12.0424 31.0292 14.8159 31.9037 17.7961 31.9037C27.502 31.9037 32.8098 23.8627 32.8098 16.8899C32.8098 16.661 32.8056 16.433 32.7944 16.2075C33.8267 15.4616 34.7217 14.5323 35.429 13.4743Z" fill="white"/>
</g>
<defs>
<clipPath id="clip0_1039_15">
<rect width="42.8724" height="42.8724" fill="white" transform="translate(0.96875 0.126953)"/>
</clipPath>
</defs>
</svg>
