<svg width="44" height="43" viewBox="0 0 44 43" fill="none" xmlns="http://www.w3.org/2000/svg">
<g clip-path="url(#clip0_1031_2808)">
<path d="M22.319 42.9974C34.1579 42.9974 43.7552 33.4001 43.7552 21.5612C43.7552 9.72232 34.1579 0.125 22.319 0.125C10.4801 0.125 0.882812 9.72232 0.882812 21.5612C0.882812 33.4001 10.4801 42.9974 22.319 42.9974Z" fill="#2DC100"/>
<path d="M31.7486 18.8815C24.6235 15.2617 16.5265 21.9143 20.2291 28.0163C21.9489 30.8809 25.917 32.6908 30.6111 31.334C31.5513 31.697 32.3869 32.2889 33.2906 32.7298C33.047 31.9357 32.8034 31.1538 32.5379 30.3743C37.3951 26.9201 36.3331 21.2127 31.7486 18.8815ZM26.0607 22.9983C25.9953 23.1708 25.8876 23.3242 25.7475 23.4443C25.6073 23.5643 25.4392 23.6473 25.2587 23.6854C25.0781 23.7235 24.8908 23.7157 24.7141 23.6625C24.5374 23.6094 24.3768 23.5127 24.2472 23.3813C24.1176 23.2499 24.0232 23.088 23.9725 22.9106C23.9218 22.7332 23.9165 22.5458 23.9571 22.3658C23.9977 22.1858 24.0829 22.0188 24.2049 21.8803C24.3269 21.7419 24.4817 21.6363 24.6552 21.5732C25.4761 21.2273 26.4213 22.1774 26.0607 22.9983ZM31.393 23.103H31.4076C31.3282 23.2563 31.2143 23.389 31.075 23.4909C30.9356 23.5928 30.7746 23.6611 30.6045 23.6903C30.4344 23.7196 30.2598 23.7091 30.0944 23.6596C29.929 23.6101 29.7774 23.523 29.6513 23.4051C29.4525 23.1716 29.3204 22.8888 29.2689 22.5866C29.3833 22.0726 29.7366 21.5416 30.3066 21.5172C31.0909 21.4076 31.7949 22.382 31.393 23.103Z" fill="white"/>
<path d="M28.3598 17.3903C27.8726 14.9982 26.2016 12.9788 24.097 11.8144H24.1262C16.6527 7.59049 7.34991 13.4806 9.14763 20.4254C9.63482 22.4862 11.055 24.2157 12.7845 25.3679C12.4508 26.3204 12.1316 27.2704 11.832 28.2277C12.9185 27.6577 14.0073 27.0609 15.0962 26.4812C16.4127 26.9081 17.7931 27.1043 19.1764 27.0609C17.4712 22.1403 21.8559 16.9274 28.3598 17.3903ZM21.5879 14.5329C21.7983 14.4567 22.0241 14.4329 22.2457 14.4638C22.4673 14.4947 22.678 14.5792 22.8595 14.7101C23.041 14.8409 23.1878 15.0141 23.2872 15.2146C23.3865 15.4151 23.4354 15.6368 23.4295 15.8605V15.8751C23.4295 16.9493 22.0069 17.6217 21.2031 16.8933C20.37 16.2916 20.6136 14.835 21.5879 14.5329ZM16.6698 16.1479C16.4774 17.0833 15.2302 17.534 14.4994 16.9055C13.6517 16.3063 13.8904 14.8228 14.8843 14.5207C15.8586 14.1432 16.9645 15.137 16.6698 16.1479Z" fill="white"/>
</g>
<defs>
<clipPath id="clip0_1031_2808">
<rect width="42.8724" height="42.8724" fill="white" transform="translate(0.886719 0.126953)"/>
</clipPath>
</defs>
</svg>
