<svg width="44" height="43" viewBox="0 0 44 43" fill="none" xmlns="http://www.w3.org/2000/svg">
<g clip-path="url(#clip0_1031_2815)">
<path d="M21.5925 42.9974C33.4314 42.9974 43.0287 33.4001 43.0287 21.5612C43.0287 9.72232 33.4314 0.125 21.5925 0.125C9.75357 0.125 0.15625 9.72232 0.15625 21.5612C0.15625 33.4001 9.75357 42.9974 21.5925 42.9974Z" fill="#29A71A"/>
<path d="M31.0436 12.1101C28.8134 9.85761 25.8516 8.47621 22.6925 8.21511C19.5335 7.95401 16.3851 8.83039 13.8153 10.6862C11.2455 12.542 9.42339 15.255 8.67773 18.3358C7.93207 21.4167 8.3119 24.6627 9.7487 27.4882L8.3383 34.3356C8.32366 34.4037 8.32325 34.4742 8.33708 34.5425C8.35091 34.6108 8.37869 34.6755 8.41868 34.7326C8.47727 34.8193 8.56089 34.886 8.65839 34.9239C8.75589 34.9617 8.86262 34.9689 8.96433 34.9446L15.6753 33.3539C18.4929 34.7543 21.7159 35.1097 24.7709 34.3569C27.8259 33.604 30.5147 31.7917 32.3589 29.2424C34.2031 26.6932 35.0831 23.5723 34.8422 20.4351C34.6014 17.298 33.2554 14.348 31.0436 12.1101ZM28.9512 28.8109C27.4081 30.3496 25.421 31.3654 23.27 31.715C21.119 32.0646 18.9125 31.7305 16.9615 30.7596L16.0261 30.2968L11.9118 31.2712L11.924 31.22L12.7766 27.0789L12.3186 26.1752C11.3217 24.2174 10.9701 21.9943 11.314 19.8243C11.6579 17.6544 12.6798 15.649 14.2333 14.0954C16.1852 12.1441 18.8322 11.0479 21.5922 11.0479C24.3522 11.0479 26.9992 12.1441 28.9512 14.0954C28.9678 14.1145 28.9857 14.1324 29.0048 14.149C30.9325 16.1053 32.0086 18.7445 31.9986 21.491C31.9886 24.2375 30.8931 26.8687 28.9512 28.8109Z" fill="white"/>
<path d="M28.5837 25.7744C28.0795 26.5685 27.2829 27.5405 26.2817 27.7816C24.5279 28.2055 21.8362 27.7962 18.4868 24.6734L18.4453 24.6368C15.5003 21.9062 14.7354 19.6334 14.9205 17.8308C15.0229 16.8077 15.8754 15.8821 16.594 15.278C16.7076 15.181 16.8424 15.112 16.9874 15.0764C17.1325 15.0408 17.2839 15.0397 17.4294 15.073C17.575 15.1064 17.7108 15.1734 17.8259 15.2686C17.9409 15.3638 18.0321 15.4847 18.0921 15.6214L19.1761 18.0574C19.2466 18.2153 19.2727 18.3895 19.2516 18.5611C19.2306 18.7328 19.1632 18.8955 19.0568 19.0318L18.5087 19.743C18.3911 19.8899 18.3201 20.0686 18.3049 20.2562C18.2897 20.4437 18.331 20.6315 18.4234 20.7954C18.7303 21.3337 19.466 22.1254 20.282 22.8586C21.1979 23.6868 22.2137 24.4444 22.8568 24.7026C23.0289 24.7729 23.2181 24.7901 23.4 24.7519C23.5819 24.7136 23.7482 24.6218 23.8775 24.4882L24.5133 23.8476C24.6359 23.7266 24.7885 23.6403 24.9554 23.5976C25.1223 23.5548 25.2975 23.557 25.4633 23.604L28.038 24.3348C28.1801 24.3783 28.3103 24.4538 28.4187 24.5554C28.527 24.657 28.6108 24.7821 28.6634 24.921C28.7161 25.0599 28.7363 25.209 28.7224 25.3569C28.7086 25.5049 28.6612 25.6477 28.5837 25.7744Z" fill="white"/>
</g>
<defs>
<clipPath id="clip0_1031_2815">
<rect width="42.8724" height="42.8724" fill="white" transform="translate(0.15625 0.126953)"/>
</clipPath>
</defs>
</svg>
